<mxfile host="app.diagrams.net" modified="2024-01-28T08:09:57.121Z" agent="Mozilla/5.0 (Windows NT 10.0; Win64; x64) AppleWebKit/537.36 (KHTML, like Gecko) Chrome/121.0.0.0 Safari/537.36 Edg/121.0.0.0" version="23.0.0" etag="VnkSWuLA156RpHCC3xN4" type="github">
  <diagram name="Page-1" id="1p0iBGzgYsGOFXb0Ml5E">
    <mxGraphModel>
      <root>
        <mxCell id="0" />
        <mxCell id="1" parent="0" />
      </root>
    </mxGraphModel>
  </diagram>
</mxfile>
